<?xml version="1.0" encoding="utf-8"?>
<!-- Generator: Adobe Illustrator 16.0.0, SVG Export Plug-In . SVG Version: 6.00 Build 0)  -->
<!DOCTYPE svg PUBLIC "-//W3C//DTD SVG 1.1//EN" "http://www.w3.org/Graphics/SVG/1.1/DTD/svg11.dtd">
<svg version="1.1" id="Layer_1" xmlns="http://www.w3.org/2000/svg" xmlns:xlink="http://www.w3.org/1999/xlink" x="0px" y="0px"
	 width="445.174px" height="445.172px" viewBox="0 0 445.174 445.172" enable-background="new 0 0 445.174 445.172"
	 xml:space="preserve">
<g>
	<circle fill="#FFFFFF" stroke="#40C3D8" stroke-width="23.7022" cx="222.587" cy="222.588" r="210.736"/>
	<path fill="#40C3D8" d="M160.656,315.782c16.611,10.119,34.979,12.838,53.102,10.424c-39.577-26.719-23.63-87.135,0.329-119.431
		c15.465-20.859,32.938-37.715,56.408-49.039c4.927-2.374,9.835-4.714,14.697-7.096c-12.037-0.594-24.902-7.801-30.974-16.443
		c-0.273-0.39-0.479-0.786-0.738-1.182c-2.159,11.708-12.874,23.884-19.304,32.177c-8.373,10.804-21.313,28.769-34.418,34.059
		c-0.952,0.387-1.939,0.117-2.62-0.639c-6.91-7.664-13.086-24.313-15.71-34.176c-1.442-5.436-1.803-10.404,1.584-15.125
		c6.15-8.556,21.579-12.044,30.876-15.009c11.978-3.824,23.755-5.767,36.023-7.648c-0.023-0.106-0.037-0.208-0.049-0.314
		c-8.452-19.919,1.53-41.358,16.447-56.505c1.147-1.166,2.762,0.691,1.683,1.863c-13.612,14.789-21.632,37.89-10.989,56.508
		c10.12,17.707,27.304,18.544,44.888,13.855c12.084-6.618,22.855-14.756,32.598-24.727c12.293-12.587,5.832-13.439,1.385-13.873
		c-9.42-0.917-22.832,2.638-19-4.327c3.732-6.787,32.373-19.51,17.357-26.812c-6.23-3.028-12.787-4.617-19.076-6.13
		c-40.568-9.74-78.451,2.215-114.294,27.125c-32.834,22.811-60.967,54.294-73.365,92.859
		C113.862,228.621,118.712,290.219,160.656,315.782z"/>
	<path fill="#005A99" d="M202.979,83.666c-6.375-0.945-12.528-2.679-18.833-4.29c-10.827-2.77-14.405-3.334-23.956,5.079
		c-10.194,8.981-19.378,20.415-28.021,30.869c-16.746,20.264-45.531,74.372-15.508,94.787c0.313-2.442,0.684-4.854,1.122-7.226
		C126.183,157.759,160.02,111.632,202.979,83.666z"/>
	<path fill="#005A99" d="M251.06,201.209c4.364,4.581,8.247,7.018,14.202,2.62c1.988-1.469,4.292-7.542,5.394-9.73
		c5.891-11.743,8.776-23.999,12.397-36.442c-15.364,8-30.656,15.69-43.666,27.666C242.632,190.979,246.584,196.512,251.06,201.209z"
		/>
	<path fill="#005A99" d="M297.119,367.427c-9.773-8.096-22.025-14.549-30.668-23.774c-0.352-0.376-0.367-0.944-0.151-1.356
		c0.018-0.282,0.082-0.559,0.275-0.816c7.656-10.136,14.628-20.385,19.513-32.203c2.672-6.461,4.031-13.284,5.686-19.992
		c-18.574,19.286-43.455,34.851-69.818,40.275c-0.482,0.338-1.071,0.48-1.723,0.35c-17.301,3.26-35.183,2.119-52.292-5.242
		c-4.455-1.918-8.58-4.223-12.421-6.83c41.701,39.938,99.627,54.959,156.246,64.525
		C306.867,377.309,302.256,371.679,297.119,367.427z"/>
	<path fill="#005A99" d="M185.835,157.23c-0.545,7.514,4.019,15.931,8.288,25.586c4.78,10.794,8.311,9.539,15.845,2.472
		c5.712-5.364,11.145-11.056,16.273-16.981c7.29-8.416,24.749-27.521,23.933-39.943c-14.893,3.384-29.852,8.621-43.993,14.156
		C202.955,143.781,186.563,147.203,185.835,157.23z"/>
	<path fill="#FFFFFF" d="M304.412,84.069c-2.107-5.712-10.41-9.026-15.344-4.899c-2.496,2.092-3.262,5.501-3.232,8.634
		c0.031,3.148,0.926,5.66,3.775,7.277c2.484,1.414,5.92,2.417,8.779,1.891C303.961,95.951,306.18,88.837,304.412,84.069z"/>
</g>
</svg>
